<svg xmlns="http://www.w3.org/2000/svg" width="1200" height="630" viewBox="0 0 1200 630">
  <defs>
    <linearGradient id="bg" x1="0%" y1="0%" x2="100%" y2="100%">
      <stop offset="0%" stop-color="#0a0e1a"/>
      <stop offset="50%" stop-color="#071525"/>
      <stop offset="100%" stop-color="#0a1a0e"/>
    </linearGradient>
    <radialGradient id="glow1" cx="50%" cy="40%" r="50%">
      <stop offset="0%" stop-color="#10b981" stop-opacity="0.18"/>
      <stop offset="100%" stop-color="#10b981" stop-opacity="0"/>
    </radialGradient>
    <radialGradient id="glow2" cx="80%" cy="80%" r="40%">
      <stop offset="0%" stop-color="#f59e0b" stop-opacity="0.10"/>
      <stop offset="100%" stop-color="#f59e0b" stop-opacity="0"/>
    </radialGradient>
    <radialGradient id="iconBg" cx="50%" cy="50%" r="50%">
      <stop offset="0%" stop-color="#065f46"/>
      <stop offset="100%" stop-color="#022c22"/>
    </radialGradient>
  </defs>

  <!-- Background -->
  <rect width="1200" height="630" fill="url(#bg)"/>
  <rect width="1200" height="630" fill="url(#glow1)"/>
  <rect width="1200" height="630" fill="url(#glow2)"/>

  <!-- Icon circle -->
  <circle cx="600" cy="210" r="110" fill="url(#iconBg)" stroke="#059669" stroke-width="3"/>

  <!-- 12 sun rays -->
  <g transform="translate(600,210)">
    <polygon points="0,-122 5.5,-97 -5.5,-97" fill="#f59e0b" opacity="0.9"/>
    <polygon points="0,-122 5.5,-97 -5.5,-97" fill="#f59e0b" opacity="0.9" transform="rotate(30)"/>
    <polygon points="0,-122 5.5,-97 -5.5,-97" fill="#f59e0b" opacity="0.9" transform="rotate(60)"/>
    <polygon points="0,-122 5.5,-97 -5.5,-97" fill="#f59e0b" opacity="0.9" transform="rotate(90)"/>
    <polygon points="0,-122 5.5,-97 -5.5,-97" fill="#f59e0b" opacity="0.9" transform="rotate(120)"/>
    <polygon points="0,-122 5.5,-97 -5.5,-97" fill="#f59e0b" opacity="0.9" transform="rotate(150)"/>
    <polygon points="0,-122 5.5,-97 -5.5,-97" fill="#f59e0b" opacity="0.9" transform="rotate(180)"/>
    <polygon points="0,-122 5.5,-97 -5.5,-97" fill="#f59e0b" opacity="0.9" transform="rotate(210)"/>
    <polygon points="0,-122 5.5,-97 -5.5,-97" fill="#f59e0b" opacity="0.9" transform="rotate(240)"/>
    <polygon points="0,-122 5.5,-97 -5.5,-97" fill="#f59e0b" opacity="0.9" transform="rotate(270)"/>
    <polygon points="0,-122 5.5,-97 -5.5,-97" fill="#f59e0b" opacity="0.9" transform="rotate(300)"/>
    <polygon points="0,-122 5.5,-97 -5.5,-97" fill="#f59e0b" opacity="0.9" transform="rotate(330)"/>
  </g>

  <!-- Diamond ♦ -->
  <polygon points="600,148 655,210 600,272 545,210" fill="#34d399"/>
  <polygon points="600,152 650,210 600,250 550,210" fill="white" opacity="0.10"/>

  <!-- Site name -->
  <text x="600" y="375" text-anchor="middle" font-family="'Arial Black', 'Helvetica Neue', sans-serif" font-weight="900" font-size="72" letter-spacing="-2">
    <tspan fill="white">Online</tspan><tspan fill="#f59e0b">Casino</tspan><tspan fill="#10b981">Peru</tspan>
  </text>

  <!-- Domain -->
  <text x="600" y="430" text-anchor="middle" font-family="Arial, sans-serif" font-size="28" fill="#64748b" letter-spacing="4">ONLINECASINOPERU.COM</text>

  <!-- Tagline -->
  <text x="600" y="490" text-anchor="middle" font-family="Arial, sans-serif" font-size="22" fill="#475569" letter-spacing="1">Guía Independiente de Casinos Online en Perú</text>
</svg>
